<svg data-v-423bf9ae="" xmlns="http://www.w3.org/2000/svg" viewBox="0 0 358 90" class="iconLeft"><!----><defs data-v-423bf9ae=""><linearGradient data-v-423bf9ae="" gradientTransform="rotate(25)" id="4aebe835-1265-4421-9c19-9b8f99fe68f2" x1="0%" y1="0%" x2="100%" y2="0%"><stop data-v-423bf9ae="" offset="0%" style="stop-color: rgb(81, 6, 255); stop-opacity: 1;"></stop><stop data-v-423bf9ae="" offset="100%" style="stop-color: rgb(97, 203, 242); stop-opacity: 1;"></stop></linearGradient></defs><!----><g data-v-423bf9ae="" id="c91b5e4a-ef3f-4b9c-bd3b-0ca1666c6d2a" fill="#ffffff" transform="matrix(5.830903811703725,0,0,5.830903811703725,158.35886667489555,2.3469397142517323)"><path d="M0.99 12.29L0.99 2.69L2.79 2.69L2.79 7.55L7.45 2.69L9.63 2.69L5.91 6.57L9.70 12.29L7.59 12.29L4.70 7.83L2.79 9.51L2.79 12.29L0.99 12.29ZM13.16 12.46L13.16 12.46Q10.78 12.46 10.78 9.90L10.78 9.90L10.78 4.93L12.46 4.93L12.46 9.60L12.46 9.60Q12.46 10.36 12.80 10.68L12.80 10.68L12.80 10.68Q13.15 11.00 13.82 11.00L13.82 11.00L13.82 11.00Q14.52 11.00 14.99 10.50L14.99 10.50L14.99 10.50Q15.47 10.00 15.47 9.21L15.47 9.21L15.47 4.93L17.15 4.93L17.15 12.29L15.76 12.29L15.62 11.31L15.53 11.31L15.53 11.31Q15.12 11.86 14.53 12.16L14.53 12.16L14.53 12.16Q13.93 12.46 13.16 12.46L13.16 12.46ZM22.97 12.46L22.97 12.46Q22.26 12.46 21.67 12.17L21.67 12.17L21.67 12.17Q21.08 11.87 20.72 11.31L20.72 11.31L20.64 11.31L20.50 12.29L19.11 12.29L19.11 2.17L20.79 2.17L20.79 5.78L20.87 5.78L20.87 5.78Q21.55 4.76 23.09 4.76L23.09 4.76L23.09 4.76Q24.37 4.76 25.14 5.73L25.14 5.73L25.14 5.73Q25.91 6.69 25.91 8.60L25.91 8.60L25.91 8.60Q25.91 10.56 25.14 11.51L25.14 11.51L25.14 11.51Q24.37 12.46 22.97 12.46L22.97 12.46ZM22.47 11.02L22.47 11.02Q23.39 11.02 23.79 10.46L23.79 10.46L23.79 10.46Q24.18 9.91 24.18 8.71L24.18 8.71L24.18 8.53L24.18 8.53Q24.18 7.31 23.79 6.75L23.79 6.75L23.79 6.75Q23.39 6.20 22.47 6.20L22.47 6.20L22.47 6.20Q20.79 6.20 20.79 8.54L20.79 8.54L20.79 8.71L20.79 8.71Q20.79 9.86 21.20 10.44L21.20 10.44L21.20 10.44Q21.60 11.02 22.47 11.02L22.47 11.02ZM30.56 12.46L30.56 12.46Q28.74 12.46 27.84 11.52L27.84 11.52L27.84 11.52Q26.94 10.58 26.94 8.61L26.94 8.61L26.94 8.61Q26.94 6.64 27.84 5.70L27.84 5.70L27.84 5.70Q28.74 4.76 30.56 4.76L30.56 4.76L30.56 4.76Q32.38 4.76 33.29 5.70L33.29 5.70L33.29 5.70Q34.19 6.64 34.19 8.61L34.19 8.61L34.19 8.61Q34.19 10.58 33.29 11.52L33.29 11.52L33.29 11.52Q32.38 12.46 30.56 12.46L30.56 12.46ZM30.56 11.09L30.56 11.09Q31.56 11.09 32.00 10.51L32.00 10.51L32.00 10.51Q32.45 9.93 32.45 8.71L32.45 8.71L32.45 8.51L32.45 8.51Q32.45 7.29 32.00 6.71L32.00 6.71L32.00 6.71Q31.56 6.13 30.56 6.13L30.56 6.13L30.56 6.13Q29.55 6.13 29.11 6.71L29.11 6.71L29.11 6.71Q28.67 7.29 28.67 8.51L28.67 8.51L28.67 8.71L28.67 8.71Q28.67 9.93 29.11 10.51L29.11 10.51L29.11 10.51Q29.55 11.09 30.56 11.09L30.56 11.09Z"></path></g><!----><g data-v-423bf9ae="" id="46c2485f-54eb-4fe4-903a-2d331ab4c1bb" transform="matrix(1.4413146365923606,0,0,1.4413146365923606,0.9342681703819693,-26.291860511649986)" stroke="none" fill="#ffffff"><path d="M97.938 68.771h-6.316V20.81a2.022 2.022 0 0 0-2.021-2.021H10.399a2.022 2.022 0 0 0-2.021 2.021v47.961H2.062A2.062 2.062 0 0 0 0 70.832v2.084c0 .103.008.204.022.306.527 3.521 3.348 7.447 7.159 7.922.083.01.169.017.252.017l84.51.071h.003c4.404 0 7.604-4.197 8.041-8.085.009-.075.013-.152.013-.23v-2.084a2.062 2.062 0 0 0-2.062-2.062zM12.42 22.831h75.16V68.77H59.985c-.133 0-.262.016-.386.04H41.16a2.07 2.07 0 0 0-.396-.04H12.42V22.831zm79.528 54.276l-84.362-.071c-1.461-.261-3.024-2.16-3.434-4.143h35.086c.702 1.246 2.017 2.085 3.519 2.085H57.99c1.502 0 2.816-.839 3.52-2.085h34.35c-.322 2.033-2.006 4.214-3.912 4.214zM38.84 37.498a2.083 2.083 0 0 0-2.947 0l-8.689 8.689a2.085 2.085 0 0 0 0 2.948l8.689 8.688a2.08 2.08 0 0 0 2.948 0 2.083 2.083 0 0 0 0-2.947l-7.216-7.215 7.216-7.216a2.084 2.084 0 0 0-.001-2.947zm20.521 20.325a2.081 2.081 0 0 0 2.948 0l8.688-8.688a2.085 2.085 0 0 0 0-2.948l-8.688-8.689a2.083 2.083 0 1 0-2.947 2.947l7.215 7.216-7.215 7.215a2.083 2.083 0 0 0-.001 2.947zm-17.568 4.452a2.085 2.085 0 0 0 2.797-.932l12.506-25.011a2.083 2.083 0 0 0-.933-2.796 2.087 2.087 0 0 0-2.797.932L40.861 59.479a2.083 2.083 0 0 0 .932 2.796z"></path></g><!----></svg>