<svg data-v-423bf9ae="" xmlns="http://www.w3.org/2000/svg" viewBox="0 0 465 90" class="iconLeft"><!----><defs data-v-423bf9ae=""><linearGradient data-v-423bf9ae="" gradientTransform="rotate(25)" id="df803492-3d98-4fa5-a4c6-5c6d56cb4508" x1="0%" y1="0%" x2="100%" y2="0%"><stop data-v-423bf9ae="" offset="0%" style="stop-color: rgb(81, 164, 251); stop-opacity: 1;"></stop><stop data-v-423bf9ae="" offset="100%" style="stop-color: rgb(81, 164, 251); stop-opacity: 1;"></stop></linearGradient></defs><!----><g data-v-423bf9ae="" id="03de5d98-360c-4550-ac84-50e2d2b959e1" fill="#ffffff" transform="matrix(5.352364397880104,0,0,5.352364397880104,79.64656765237129,0.6021408939492474)"><path d="M2.07 13.69L2.07 13.69Q1.50 13.69 1.19 13.38L1.19 13.38L1.19 13.38Q0.88 13.08 0.88 12.50L0.88 12.50L0.88 4.31L0.88 4.31Q0.88 3.74 1.19 3.43L1.19 3.43L1.19 3.43Q1.50 3.12 2.07 3.12L2.07 3.12L4.51 3.12L4.51 3.12Q7.06 3.12 8.65 4.40L8.65 4.40L8.65 4.40Q10.25 5.67 10.25 8.39L10.25 8.39L10.25 8.39Q10.25 10.99 8.73 12.34L8.73 12.34L8.73 12.34Q7.21 13.69 4.51 13.69L4.51 13.69L2.07 13.69ZM3.54 11.56L4.51 11.56L4.51 11.56Q5.92 11.56 6.69 10.84L6.69 10.84L6.69 10.84Q7.46 10.12 7.46 8.34L7.46 8.34L7.46 8.34Q7.46 6.69 6.71 5.96L6.71 5.96L6.71 5.96Q5.95 5.24 4.51 5.24L4.51 5.24L3.54 5.24L3.54 11.56ZM14.91 13.90L14.91 13.90Q13.76 13.90 12.85 13.41L12.85 13.41L12.85 13.41Q11.94 12.92 11.42 12.01L11.42 12.01L11.42 12.01Q10.91 11.10 10.91 9.90L10.91 9.90L10.91 9.90Q10.91 8.74 11.39 7.82L11.39 7.82L11.39 7.82Q11.87 6.90 12.77 6.38L12.77 6.38L12.77 6.38Q13.66 5.87 14.85 5.87L14.85 5.87L14.85 5.87Q16.06 5.87 16.93 6.38L16.93 6.38L16.93 6.38Q17.79 6.89 18.23 7.71L18.23 7.71L18.23 7.71Q18.68 8.54 18.68 9.44L18.68 9.44L18.68 9.44Q18.68 10.01 18.41 10.29L18.41 10.29L18.41 10.29Q18.14 10.57 17.53 10.57L17.53 10.57L13.40 10.57L13.40 10.57Q13.47 11.26 13.89 11.66L13.89 11.66L13.89 11.66Q14.31 12.07 14.97 12.07L14.97 12.07L14.97 12.07Q15.36 12.07 15.62 11.94L15.62 11.94L15.62 11.94Q15.89 11.80 16.10 11.59L16.10 11.59L16.10 11.59Q16.30 11.41 16.46 11.32L16.46 11.32L16.46 11.32Q16.62 11.23 16.86 11.23L16.86 11.23L16.86 11.23Q17.29 11.23 17.60 11.54L17.60 11.54L17.60 11.54Q17.91 11.86 17.91 12.31L17.91 12.31L17.91 12.31Q17.91 12.80 17.49 13.15L17.49 13.15L17.49 13.15Q17.11 13.47 16.41 13.69L16.41 13.69L16.41 13.69Q15.71 13.90 14.91 13.90L14.91 13.90ZM13.41 9.04L16.17 9.04L16.17 9.04Q16.14 8.37 15.77 7.98L15.77 7.98L15.77 7.98Q15.40 7.59 14.81 7.59L14.81 7.59L14.81 7.59Q14.22 7.59 13.85 7.98L13.85 7.98L13.85 7.98Q13.48 8.37 13.41 9.04L13.41 9.04ZM22.54 13.80L22.54 13.80Q21.92 13.80 21.44 13.46L21.44 13.46L21.44 13.46Q20.96 13.12 20.76 12.56L20.76 12.56L19.00 7.64L19.00 7.64Q18.91 7.36 18.91 7.22L18.91 7.22L18.91 7.22Q18.91 6.69 19.29 6.32L19.29 6.32L19.29 6.32Q19.67 5.95 20.19 5.95L20.19 5.95L20.19 5.95Q20.62 5.95 20.96 6.20L20.96 6.20L20.96 6.20Q21.29 6.45 21.41 6.86L21.41 6.86L22.25 9.67L22.25 9.67Q22.39 10.14 22.50 10.74L22.50 10.74L22.50 10.74Q22.57 10.99 22.58 11.24L22.58 11.24L22.67 11.24L22.67 11.24Q22.72 10.91 22.76 10.74L22.76 10.74L22.76 10.74Q22.85 10.32 23.03 9.69L23.03 9.69L23.90 6.79L23.90 6.79Q24.01 6.43 24.32 6.19L24.32 6.19L24.32 6.19Q24.63 5.95 25.02 5.95L25.02 5.95L25.02 5.95Q25.51 5.95 25.85 6.29L25.85 6.29L25.85 6.29Q26.19 6.64 26.19 7.13L26.19 7.13L26.19 7.13Q26.19 7.32 26.12 7.53L26.12 7.53L24.32 12.56L24.32 12.56Q24.12 13.12 23.64 13.46L23.64 13.46L23.64 13.46Q23.16 13.80 22.54 13.80L22.54 13.80ZM30.25 13.90L30.25 13.90Q28.99 13.90 28.10 13.38L28.10 13.38L28.10 13.38Q27.20 12.87 26.74 11.96L26.74 11.96L26.74 11.96Q26.28 11.05 26.28 9.90L26.28 9.90L26.28 9.90Q26.28 8.72 26.75 7.81L26.75 7.81L26.75 7.81Q27.23 6.90 28.14 6.38L28.14 6.38L28.14 6.38Q29.05 5.87 30.31 5.87L30.31 5.87L30.31 5.87Q31.57 5.87 32.48 6.38L32.48 6.38L32.48 6.38Q33.39 6.90 33.85 7.81L33.85 7.81L33.85 7.81Q34.31 8.72 34.31 9.87L34.31 9.87L34.31 9.87Q34.31 11.03 33.83 11.95L33.83 11.95L33.83 11.95Q33.35 12.87 32.43 13.38L32.43 13.38L32.43 13.38Q31.51 13.90 30.25 13.90L30.25 13.90ZM30.30 12.04L30.30 12.04Q31.00 12.04 31.35 11.47L31.35 11.47L31.35 11.47Q31.70 10.89 31.70 9.88L31.70 9.88L31.70 9.88Q31.70 8.88 31.35 8.30L31.35 8.30L31.35 8.30Q31.00 7.73 30.28 7.73L30.28 7.73L30.28 7.73Q29.58 7.73 29.23 8.29L29.23 8.29L29.23 8.29Q28.88 8.86 28.88 9.87L28.88 9.87L28.88 9.87Q28.88 10.89 29.24 11.47L29.24 11.47L29.24 11.47Q29.60 12.04 30.30 12.04L30.30 12.04ZM36.20 4.98L36.20 4.98Q35.76 4.98 35.43 4.66L35.43 4.66L35.43 4.66Q35.11 4.34 35.11 3.89L35.11 3.89L35.11 3.89Q35.11 3.44 35.43 3.12L35.43 3.12L35.43 3.12Q35.76 2.80 36.20 2.80L36.20 2.80L36.85 2.80L36.85 2.80Q37.30 2.80 37.62 3.12L37.62 3.12L37.62 3.12Q37.94 3.44 37.94 3.89L37.94 3.89L37.94 3.89Q37.94 4.34 37.62 4.66L37.62 4.66L37.62 4.66Q37.30 4.98 36.85 4.98L36.85 4.98L36.20 4.98ZM36.53 13.80L36.53 13.80Q35.99 13.80 35.61 13.42L35.61 13.42L35.61 13.42Q35.22 13.03 35.22 12.50L35.22 12.50L35.22 7.25L35.22 7.25Q35.22 6.72 35.61 6.33L35.61 6.33L35.61 6.33Q35.99 5.95 36.53 5.95L36.53 5.95L36.53 5.95Q37.06 5.95 37.44 6.33L37.44 6.33L37.44 6.33Q37.83 6.72 37.83 7.25L37.83 7.25L37.83 12.50L37.83 12.50Q37.83 13.03 37.44 13.42L37.44 13.42L37.44 13.42Q37.06 13.80 36.53 13.80L36.53 13.80ZM40.50 13.80L40.50 13.80Q39.97 13.80 39.58 13.42L39.58 13.42L39.58 13.42Q39.20 13.03 39.20 12.50L39.20 12.50L39.20 3.99L39.20 3.99Q39.20 3.46 39.58 3.07L39.58 3.07L39.58 3.07Q39.97 2.69 40.50 2.69L40.50 2.69L40.50 2.69Q41.03 2.69 41.42 3.07L41.42 3.07L41.42 3.07Q41.80 3.46 41.80 3.99L41.80 3.99L41.80 12.50L41.80 12.50Q41.80 13.03 41.42 13.42L41.42 13.42L41.42 13.42Q41.03 13.80 40.50 13.80L40.50 13.80ZM46.77 13.90L46.77 13.90Q45.63 13.90 44.72 13.41L44.72 13.41L44.72 13.41Q43.81 12.92 43.29 12.01L43.29 12.01L43.29 12.01Q42.77 11.10 42.77 9.90L42.77 9.90L42.77 9.90Q42.77 8.74 43.25 7.82L43.25 7.82L43.25 7.82Q43.74 6.90 44.63 6.38L44.63 6.38L44.63 6.38Q45.53 5.87 46.72 5.87L46.72 5.87L46.72 5.87Q47.92 5.87 48.79 6.38L48.79 6.38L48.79 6.38Q49.66 6.89 50.10 7.71L50.10 7.71L50.10 7.71Q50.54 8.54 50.54 9.44L50.54 9.44L50.54 9.44Q50.54 10.01 50.27 10.29L50.27 10.29L50.27 10.29Q50.01 10.57 49.39 10.57L49.39 10.57L45.26 10.57L45.26 10.57Q45.33 11.26 45.75 11.66L45.75 11.66L45.75 11.66Q46.17 12.07 46.83 12.07L46.83 12.07L46.83 12.07Q47.22 12.07 47.49 11.94L47.49 11.94L47.49 11.94Q47.75 11.80 47.96 11.59L47.96 11.59L47.96 11.59Q48.16 11.41 48.32 11.32L48.32 11.32L48.32 11.32Q48.48 11.23 48.72 11.23L48.72 11.23L48.72 11.23Q49.15 11.23 49.46 11.54L49.46 11.54L49.46 11.54Q49.77 11.86 49.77 12.31L49.77 12.31L49.77 12.31Q49.77 12.80 49.35 13.15L49.35 13.15L49.35 13.15Q48.97 13.47 48.27 13.69L48.27 13.69L48.27 13.69Q47.57 13.90 46.77 13.90L46.77 13.90ZM45.28 9.04L48.03 9.04L48.03 9.04Q48.01 8.37 47.63 7.98L47.63 7.98L47.63 7.98Q47.26 7.59 46.68 7.59L46.68 7.59L46.68 7.59Q46.09 7.59 45.72 7.98L45.72 7.98L45.72 7.98Q45.35 8.37 45.28 9.04L45.28 9.04ZM57.85 13.86L57.85 13.86Q56.50 13.86 55.94 13.20L55.94 13.20L55.94 13.20Q55.38 12.53 55.40 11.13L55.40 11.13L55.41 7.78L55.02 7.78L55.02 7.78Q54.67 7.78 54.42 7.53L54.42 7.53L54.42 7.53Q54.17 7.28 54.17 6.93L54.17 6.93L54.17 6.93Q54.17 6.57 54.42 6.31L54.42 6.31L54.42 6.31Q54.67 6.06 55.02 6.06L55.02 6.06L55.50 6.06L55.55 5.03L55.55 5.03Q55.58 4.56 55.92 4.23L55.92 4.23L55.92 4.23Q56.27 3.91 56.74 3.91L56.74 3.91L56.74 3.91Q57.23 3.91 57.58 4.26L57.58 4.26L57.58 4.26Q57.93 4.61 57.93 5.10L57.93 5.10L57.93 6.06L58.76 6.06L58.76 6.06Q59.11 6.06 59.36 6.31L59.36 6.31L59.36 6.31Q59.61 6.57 59.61 6.92L59.61 6.92L59.61 6.92Q59.61 7.28 59.36 7.53L59.36 7.53L59.36 7.53Q59.11 7.78 58.76 7.78L58.76 7.78L57.99 7.78L57.99 10.91L57.99 10.91Q57.99 11.48 58.23 11.72L58.23 11.72L58.23 11.72Q58.48 11.96 58.98 11.96L58.98 11.96L58.98 11.96Q59.30 12.03 59.53 12.29L59.53 12.29L59.53 12.29Q59.75 12.54 59.75 12.89L59.75 12.89L59.75 12.89Q59.75 13.19 59.59 13.42L59.59 13.42L59.59 13.42Q59.43 13.65 59.18 13.76L59.18 13.76L59.18 13.76Q58.62 13.86 57.85 13.86L57.85 13.86ZM64.15 13.90L64.15 13.90Q62.89 13.90 61.99 13.38L61.99 13.38L61.99 13.38Q61.10 12.87 60.63 11.96L60.63 11.96L60.63 11.96Q60.17 11.05 60.17 9.90L60.17 9.90L60.17 9.90Q60.17 8.72 60.65 7.81L60.65 7.81L60.65 7.81Q61.12 6.90 62.03 6.38L62.03 6.38L62.03 6.38Q62.94 5.87 64.20 5.87L64.20 5.87L64.20 5.87Q65.46 5.87 66.37 6.38L66.37 6.38L66.37 6.38Q67.28 6.90 67.75 7.81L67.75 7.81L67.75 7.81Q68.21 8.72 68.21 9.87L68.21 9.87L68.21 9.87Q68.21 11.03 67.72 11.95L67.72 11.95L67.72 11.95Q67.24 12.87 66.33 13.38L66.33 13.38L66.33 13.38Q65.41 13.90 64.15 13.90L64.15 13.90ZM64.19 12.04L64.19 12.04Q64.89 12.04 65.24 11.47L65.24 11.47L65.24 11.47Q65.59 10.89 65.59 9.88L65.59 9.88L65.59 9.88Q65.59 8.88 65.24 8.30L65.24 8.30L65.24 8.30Q64.89 7.73 64.18 7.73L64.18 7.73L64.18 7.73Q63.48 7.73 63.13 8.29L63.13 8.29L63.13 8.29Q62.78 8.86 62.78 9.87L62.78 9.87L62.78 9.87Q62.78 10.89 63.13 11.47L63.13 11.47L63.13 11.47Q63.49 12.04 64.19 12.04L64.19 12.04ZM70.10 4.98L70.10 4.98Q69.65 4.98 69.33 4.66L69.33 4.66L69.33 4.66Q69.01 4.34 69.01 3.89L69.01 3.89L69.01 3.89Q69.01 3.44 69.33 3.12L69.33 3.12L69.33 3.12Q69.65 2.80 70.10 2.80L70.10 2.80L70.74 2.80L70.74 2.80Q71.19 2.80 71.51 3.12L71.51 3.12L71.51 3.12Q71.83 3.44 71.83 3.89L71.83 3.89L71.83 3.89Q71.83 4.34 71.51 4.66L71.51 4.66L71.51 4.66Q71.19 4.98 70.74 4.98L70.74 4.98L70.10 4.98ZM70.42 13.80L70.42 13.80Q69.89 13.80 69.50 13.42L69.50 13.42L69.50 13.42Q69.12 13.03 69.12 12.50L69.12 12.50L69.12 7.25L69.12 7.25Q69.12 6.72 69.50 6.33L69.50 6.33L69.50 6.33Q69.89 5.95 70.42 5.95L70.42 5.95L70.42 5.95Q70.95 5.95 71.34 6.33L71.34 6.33L71.34 6.33Q71.72 6.72 71.72 7.25L71.72 7.25L71.72 12.50L71.72 12.50Q71.72 13.03 71.34 13.42L71.34 13.42L71.34 13.42Q70.95 13.80 70.42 13.80L70.42 13.80Z"></path></g><!----><g data-v-423bf9ae="" id="aeb21a36-6507-4bd9-a39e-70f32f94744b" transform="matrix(1.875193884153627,0,0,1.875193884153627,-15.915040835406415,-3.752101721936853)" stroke="none" fill="#ffffff"><circle cx="26" cy="21.158" r="3.94"></circle><path d="M28.96 39.457v-3.413c8.052-1.41 14.2-8.437 14.2-16.886 0-6.126-3.182-11.614-8.301-14.68a2.945 2.945 0 0 1-.485 1.314c-1.86 2.802-4.995 4.486-8.374 4.486s-6.513-1.684-8.386-4.504a2.88 2.88 0 0 1-.475-1.296c-5.118 3.067-8.299 8.555-8.299 14.68 0 8.45 6.141 15.478 14.2 16.886v3.412c-4.832.771-8.64 3.395-9.7 6.911-.41 1.35.34 2.83 1.69 3.36l.21.08c1.25.49 2.74-.07 3.45-1.27.98-1.68 3.99-2.85 7.31-2.85s6.33 1.17 7.31 2.85c.53.9 1.47 1.46 2.46 1.46.34 0 .67-.07.99-.19l.21-.08c1.35-.53 2.09-2.01 1.69-3.36-1.06-3.515-4.873-6.138-9.7-6.91zm-11.79-18.3c0-4.87 3.96-8.83 8.83-8.83s8.83 3.96 8.83 8.83-3.96 8.83-8.83 8.83-8.83-3.96-8.83-8.83z"></path><path d="M26 8.277c2.71 0 5.22-1.35 6.72-3.61a.997.997 0 0 0-.47-1.48 17.074 17.074 0 0 0-12.5 0c-.29.11-.5.34-.59.63-.09.29-.05.6.12.85A8.047 8.047 0 0 0 26 8.278z"></path></g><!----></svg>